<svg enable-background="new 0 0 296.999 296.999" height="512" viewBox="0 0 296.999 296.999" width="512" xmlns="http://www.w3.org/2000/svg"><g fill="#fff"><path d="m45.432 35.049c-.008 0-.017 0-.025 0-2.809 0-5.451 1.095-7.446 3.085-2.017 2.012-3.128 4.691-3.128 7.543v159.365c0 5.844 4.773 10.61 10.641 10.625 24.738.059 66.184 5.215 94.776 35.136v-166.78c0-1.981-.506-3.842-1.461-5.382-23.467-37.792-68.563-43.534-93.357-43.592z"/><path d="m262.167 205.042v-159.366c0-2.852-1.111-5.531-3.128-7.543-1.995-1.99-4.639-3.085-7.445-3.085-.009 0-.018 0-.026 0-24.793.059-69.889 5.801-93.357 43.593-.955 1.54-1.46 3.401-1.46 5.382v166.779c28.592-29.921 70.038-35.077 94.776-35.136 5.867-.015 10.64-4.781 10.64-10.624z"/><path d="m286.373 71.801h-7.706v133.241c0 14.921-12.157 27.088-27.101 27.125-20.983.05-55.581 4.153-80.084 27.344 42.378-10.376 87.052-3.631 112.512 2.171 3.179.724 6.464-.024 9.011-2.054 2.538-2.025 3.994-5.052 3.994-8.301v-168.9c.001-5.859-4.767-10.626-10.626-10.626z"/><path d="m18.332 205.042v-133.241h-7.706c-5.858 0-10.626 4.767-10.626 10.626v168.897c0 3.25 1.456 6.276 3.994 8.301 2.545 2.029 5.827 2.78 9.011 2.054 25.46-5.803 70.135-12.547 112.511-2.171-24.502-23.19-59.1-27.292-80.083-27.342-14.943-.036-27.101-12.203-27.101-27.124z"/></g></svg>